<svg width="32" height="32" viewBox="0 0 32 32" fill="none" xmlns="http://www.w3.org/2000/svg">
<g clip-path="url(#clip0)">
<path d="M31.6554 15.2438L19.8492 4.99688C19.7586 4.91875 19.6429 4.875 19.5211 4.875H16.7554C16.5242 4.875 16.4179 5.1625 16.5929 5.3125L27.5367 14.8125L0.25 14.5625C0.1125 14.5625 0 14.675 0 14.8125V16.6875C0 16.825 0.1125 16.9375 0.25 16.9375L27.5336 17.1875L16.5898 26.6875C16.4148 26.8406 16.5211 27.125 16.7523 27.125H19.6117C19.6711 27.125 19.7304 27.1031 19.7742 27.0625L31.6554 16.7563C31.7636 16.6622 31.8504 16.546 31.9098 16.4155C31.9692 16.2851 32 16.1434 32 16C32 15.8566 31.9692 15.7149 31.9098 15.5845C31.8504 15.454 31.7636 15.3378 31.6554 15.2438Z" fill="black"/>
</g>
<defs>
<clipPath id="clip0">
<rect width="32" height="32" fill="white"/>
</clipPath>
</defs>
</svg>
