<svg width="40" height="40" viewBox="0 0 40 40" fill="none" xmlns="http://www.w3.org/2000/svg">
<circle cx="20" cy="20" r="20" transform="rotate(-180 20 20)" fill="#3B858B"/>
<path d="M23.3625 26.6125C23.4784 26.4969 23.5703 26.3595 23.633 26.2083C23.6958 26.0571 23.7281 25.895 23.7281 25.7313C23.7281 25.5675 23.6958 25.4054 23.633 25.2542C23.5703 25.103 23.4784 24.9656 23.3625 24.85L18.5125 20L23.3625 15.15C23.5962 14.9163 23.7275 14.5993 23.7275 14.2688C23.7275 13.9382 23.5962 13.6212 23.3625 13.3875C23.1288 13.1538 22.8118 13.0225 22.4813 13.0225C22.1507 13.0225 21.8337 13.1538 21.6 13.3875L15.8625 19.125C15.7466 19.2406 15.6547 19.378 15.592 19.5292C15.5292 19.6804 15.4969 19.8425 15.4969 20.0063C15.4969 20.17 15.5292 20.3321 15.592 20.4833C15.6547 20.6345 15.7466 20.7719 15.8625 20.8875L21.6 26.625C22.075 27.1 22.875 27.1 23.3625 26.6125Z" fill="#F8F6F7"/>
</svg>
