<svg width="30" height="30" viewBox="0 0 30 30" fill="none" xmlns="http://www.w3.org/2000/svg">
<path d="M12.725 21.26C12.875 21.26 12.9888 21.255 13.0638 21.245C13.1517 21.2272 13.2311 21.18 13.2888 21.1112C13.3638 21.0325 13.4013 20.9187 13.4013 20.7687L13.3963 20.0725C13.3925 19.6287 13.3913 19.2762 13.3913 19.0175L13.1563 19.0587C12.9682 19.0883 12.7778 19.1001 12.5875 19.0937C12.3485 19.0895 12.1102 19.0657 11.875 19.0225C11.6255 18.976 11.3906 18.8705 11.19 18.715C10.9797 18.5559 10.8228 18.3366 10.74 18.0862L10.6375 17.85C10.5513 17.6639 10.443 17.4889 10.315 17.3287C10.2001 17.1645 10.0469 17.0306 9.86875 16.9387L9.7975 16.8887C9.74844 16.8526 9.70395 16.8106 9.665 16.7637C9.62721 16.7211 9.59603 16.6731 9.5725 16.6212C9.5525 16.5737 9.56875 16.5337 9.6225 16.5037C9.71684 16.4658 9.81861 16.45 9.92 16.4575L10.125 16.4887C10.2625 16.515 10.4313 16.5975 10.6325 16.7337C10.8325 16.8712 10.9988 17.0475 11.1288 17.2662C11.2863 17.5462 11.475 17.76 11.6975 17.9062C11.8939 18.0447 12.1272 18.1214 12.3675 18.1262C12.5925 18.1262 12.7875 18.11 12.9513 18.0762C13.1106 18.0432 13.2655 17.9911 13.4125 17.9212C13.4738 17.465 13.64 17.1125 13.9125 16.8675C13.5587 16.8325 13.2081 16.7706 12.8638 16.6825C12.5275 16.5898 12.2042 16.4554 11.9013 16.2825C11.584 16.1104 11.3037 15.8777 11.0763 15.5975C10.8588 15.3237 10.68 14.9662 10.5388 14.5225C10.3915 14.024 10.3211 13.506 10.33 12.9862C10.33 12.1612 10.6 11.4575 11.1388 10.8775C10.8863 10.2562 10.91 9.55999 11.21 8.78874C11.4088 8.72624 11.7025 8.77249 12.0913 8.92624C12.48 9.07999 12.7663 9.21124 12.9463 9.32124C13.1275 9.42999 13.2713 9.52124 13.3813 9.59624C14.0215 9.41844 14.6831 9.32928 15.3475 9.33124C16.0225 9.33124 16.6788 9.41874 17.3138 9.59749L17.7013 9.35124C17.9688 9.18874 18.2825 9.03749 18.6438 8.90124C19.0063 8.76374 19.2825 8.72624 19.4738 8.78874C19.7813 9.55999 19.8088 10.2562 19.555 10.8762C20.095 11.4575 20.365 12.16 20.365 12.9862C20.365 13.5662 20.295 14.08 20.155 14.5275C20.015 14.975 19.8338 15.3325 19.6125 15.6025C19.3813 15.8799 19.0997 16.111 18.7825 16.2837C18.4796 16.4567 18.1563 16.5911 17.82 16.6837C17.4752 16.7716 17.1242 16.833 16.77 16.8675C17.125 17.1737 17.3025 17.6587 17.3025 18.3212V20.7675C17.3025 20.8837 17.32 20.9775 17.3538 21.05C17.3696 21.0845 17.3923 21.1155 17.4205 21.1411C17.4486 21.1666 17.4816 21.1862 17.5175 21.1987C17.5925 21.225 17.66 21.2425 17.7175 21.2487C17.7763 21.2562 17.8588 21.26 17.9675 21.26H12.7263H12.725Z" fill="#3B858B"/>
<path d="M7.5 5C6.83696 5 6.20107 5.26339 5.73223 5.73223C5.26339 6.20107 5 6.83696 5 7.5V22.5C5 23.163 5.26339 23.7989 5.73223 24.2678C6.20107 24.7366 6.83696 25 7.5 25H22.5C23.163 25 23.7989 24.7366 24.2678 24.2678C24.7366 23.7989 25 23.163 25 22.5V7.5C25 6.83696 24.7366 6.20107 24.2678 5.73223C23.7989 5.26339 23.163 5 22.5 5H7.5ZM7.5 2.5H22.5C23.8261 2.5 25.0979 3.02678 26.0355 3.96447C26.9732 4.90215 27.5 6.17392 27.5 7.5V22.5C27.5 23.8261 26.9732 25.0979 26.0355 26.0355C25.0979 26.9732 23.8261 27.5 22.5 27.5H7.5C6.17392 27.5 4.90215 26.9732 3.96447 26.0355C3.02678 25.0979 2.5 23.8261 2.5 22.5V7.5C2.5 6.17392 3.02678 4.90215 3.96447 3.96447C4.90215 3.02678 6.17392 2.5 7.5 2.5Z" fill="#3B858B"/>
</svg>
