<svg width="40" height="40" viewBox="0 0 40 40" fill="none" xmlns="http://www.w3.org/2000/svg">
<circle cx="20" cy="20" r="20" fill="#3B858B"/>
<path d="M16.6375 13.3875C16.5216 13.5031 16.4297 13.6405 16.367 13.7917C16.3042 13.9429 16.2719 14.105 16.2719 14.2687C16.2719 14.4325 16.3042 14.5946 16.367 14.7458C16.4297 14.897 16.5216 15.0344 16.6375 15.15L21.4875 20L16.6375 24.85C16.4038 25.0837 16.2725 25.4007 16.2725 25.7312C16.2725 26.0618 16.4038 26.3788 16.6375 26.6125C16.8712 26.8462 17.1882 26.9775 17.5187 26.9775C17.8493 26.9775 18.1663 26.8462 18.4 26.6125L24.1375 20.875C24.2534 20.7594 24.3453 20.622 24.408 20.4708C24.4708 20.3196 24.5031 20.1575 24.5031 19.9937C24.5031 19.83 24.4708 19.6679 24.408 19.5167C24.3453 19.3655 24.2534 19.2281 24.1375 19.1125L18.4 13.375C17.925 12.9 17.125 12.9 16.6375 13.3875Z" fill="#F8F6F7"/>
</svg>
