<svg width="1040" height="166" viewBox="0 0 1040 166" fill="none" xmlns="http://www.w3.org/2000/svg">
<path fill-rule="evenodd" clip-rule="evenodd" d="M1026 7C1026 10.866 1022.64 14 1018.5 14C1018.37 14 1018.25 13.9971 1018.12 13.9914L1006.45 59.0188C1009.57 60.3657 1012.03 62.9465 1013.22 66.1462L1026.24 59.8059C1026.08 59.2298 1026 58.6244 1026 58C1026 54.134 1029.13 51 1033 51C1036.87 51 1040 54.134 1040 58C1040 61.866 1036.87 65 1033 65C1030.11 65 1027.63 63.2526 1026.56 60.7579L1013.53 67.1061C1013.84 68.1853 1014 69.3237 1014 70.5C1014 77.4036 1008.4 83 1001.5 83C996.562 83 992.293 80.1371 990.262 75.9807L842.974 96.8233C842.867 98.5412 842.426 100.169 841.715 101.642L877.801 130.854C878.985 129.712 880.652 129 882.5 129C886.09 129 889 131.686 889 135C889 138.314 886.09 141 882.5 141C878.91 141 876 138.314 876 135C876 133.74 876.421 132.571 877.14 131.605L841.237 102.541C838.983 106.404 834.795 109 830 109C824.275 109 819.415 105.3 817.68 100.161L762.361 125.782C762.771 126.609 763 127.53 763 128.5C763 132.09 759.866 135 756 135C752.134 135 749 132.09 749 128.5C749 124.91 752.134 122 756 122C758.441 122 760.591 123.161 761.844 124.92L817.395 99.191C817.137 98.1701 817 97.101 817 96C817 95.1588 817.08 94.3363 817.233 93.5395L641.727 60.1099C641.101 63.0563 639.437 65.6189 637.136 67.3969L661.724 102.447C662.426 102.159 663.194 102 664 102C667.314 102 670 104.686 670 108C670 111.314 667.314 114 664 114C660.686 114 658 111.314 658 108C658 105.852 659.129 103.968 660.825 102.908L636.321 67.9764C634.36 69.2562 632.017 70 629.5 70C627.88 70 626.331 69.6917 624.911 69.1306L609.588 133.084C612.66 133.562 615 136.029 615 139C615 142.314 612.09 145 608.5 145C604.91 145 602 142.314 602 139C602 135.686 604.91 133 608.5 133C608.527 133 608.553 133 608.58 133L623.981 68.7187C621.006 67.2526 618.699 64.6384 617.638 61.4545L492.533 101.62C493.469 103.372 494 105.374 494 107.5C494 114.404 488.404 120 481.5 120C480.407 120 479.346 119.86 478.335 119.596L471.796 153.296C474.232 154.123 476 156.588 476 159.5C476 163.09 473.314 166 470 166C466.686 166 464 163.09 464 159.5C464 155.91 466.686 153 470 153C470.279 153 470.554 153.021 470.823 153.061L477.373 119.303C472.497 117.598 469 112.958 469 107.5C469 106.881 469.045 106.272 469.132 105.677L294.783 59.8325C293.908 64.4676 290.474 68.1986 286.006 69.5017L302.543 103.077C305.637 103.537 308 106.014 308 109C308 112.314 305.09 115 301.5 115C297.91 115 295 112.314 295 109C295 105.72 297.851 103.055 301.391 103.001L285.012 69.7475C284.201 69.9131 283.36 70 282.5 70C276.397 70 271.315 65.6258 270.219 59.8413L157.761 79.4561C157.918 80.2788 158 81.1294 158 82C158 89.1797 152.404 95 145.5 95C140.064 95 135.438 91.3912 133.717 86.3515L77.3116 101.222C78.3851 103.067 79 105.212 79 107.5C79 114.404 73.4036 120 66.5 120C60.1209 120 54.8579 115.222 54.095 109.049L12.7869 104.157C12.0542 106.944 9.51716 109 6.5 109C2.91015 109 0 106.09 0 102.5C0 98.9101 2.91015 96 6.5 96C10.0899 96 13 98.9101 13 102.5C13 102.727 12.9884 102.951 12.9658 103.171L54.0111 108.032C54.0037 107.856 54 107.678 54 107.5C54 104.381 55.1423 101.529 57.0314 99.3391L29.1765 50.5931C28.5017 50.8558 27.7677 51 27 51C23.6863 51 21 48.3137 21 45C21 41.6863 23.6863 39 27 39C30.3137 39 33 41.6863 33 45C33 47.1892 31.8276 49.1045 30.0764 50.1524L57.7471 98.5761C59.8912 96.4727 62.7901 95.1361 66 95.0098V81.9811C62.6438 81.7257 60 78.9216 60 75.5C60 71.9101 62.9101 69 66.5 69C70.0899 69 73 71.9101 73 75.5C73 78.9216 70.3562 81.7257 67 81.9811V95.0098C71.0327 95.1685 74.5745 97.2376 76.7455 100.337L133.43 85.3931C133.15 84.3114 133 83.1739 133 82C133 79.0373 133.953 76.306 135.558 74.1197L100.812 19.8676C100.388 19.9544 99.9494 20 99.5 20C95.9101 20 93 17.0899 93 13.5C93 9.91015 95.9101 7 99.5 7C103.09 7 106 9.91015 106 13.5C106 16.2752 104.261 18.6442 101.813 19.5765L136.216 73.2945C138.504 70.6575 141.816 69 145.5 69C146.274 69 147.032 69.0732 147.767 69.2133L149.539 57.6989C146.908 56.8672 145 54.4064 145 51.5C145 47.9101 147.91 45 151.5 45C155.09 45 158 47.9101 158 51.5C158 55.0899 155.09 58 151.5 58C151.165 58 150.837 57.9747 150.516 57.926L148.744 69.4421C152.993 70.6264 156.35 74.0815 157.536 78.4802L270.072 58.8518C270.024 58.4078 270 57.9567 270 57.5C270 55.7339 270.366 54.0533 271.027 52.53L243.671 36.4385C242.484 37.9953 240.609 39 238.5 39C234.91 39 232 36.0899 232 32.5C232 28.9101 234.91 26 238.5 26C242.09 26 245 28.9101 245 32.5C245 33.6218 244.716 34.6773 244.215 35.5983L271.463 51.6264C273.566 47.6835 277.72 45 282.5 45C284.68 45 286.729 45.5579 288.513 46.5388L321.762 22.5563C321.276 21.6452 321 20.6048 321 19.5C321 15.9101 323.91 13 327.5 13C331.09 13 334 15.9101 334 19.5C334 23.0899 331.09 26 327.5 26C325.374 26 323.486 24.9792 322.3 23.401L289.441 47.1027C292.793 49.3448 295 53.1646 295 57.5C295 57.9517 294.976 58.3978 294.929 58.837L469.317 104.692C469.797 102.6 470.802 100.708 472.186 99.1627L440.24 78.5522C439.147 80.6036 436.987 82 434.5 82C430.91 82 428 79.0899 428 75.5C428 71.9101 430.91 69 434.5 69C438.09 69 441 71.9101 441 75.5C441 76.2436 440.875 76.958 440.645 77.6234L472.897 98.4312C475.138 96.3047 478.167 95 481.5 95C482.161 95 482.81 95.0513 483.444 95.1502L496.827 31.8853C494.075 31.3397 492 28.9121 492 26C492 22.6863 494.686 20 498 20C501.314 20 504 22.6863 504 26C504 29.3137 501.314 32 498 32C497.941 32 497.883 31.9992 497.825 31.9975L484.425 95.344C486.752 95.902 488.827 97.1111 490.444 98.768L516.951 78.8876C516.348 77.9011 516 76.7412 516 75.5C516 71.9101 518.91 69 522.5 69C526.09 69 529 71.9101 529 75.5C529 79.0899 526.09 82 522.5 82C520.51 82 518.73 81.1062 517.537 79.6982L491.117 99.5138C491.439 99.9021 491.739 100.31 492.014 100.736L617.361 60.4934C617.125 59.5343 617 58.5318 617 57.5C617 53.7244 618.674 50.3399 621.32 48.0479L605.395 18.3213C604.523 18.7557 603.54 19 602.5 19C598.91 19 596 16.0899 596 12.5C596 8.91015 598.91 6 602.5 6C606.09 6 609 8.91015 609 12.5C609 14.6914 607.916 16.6295 606.254 17.807L622.115 47.4138C624.184 45.8962 626.737 45 629.5 45C636.404 45 642 50.5964 642 57.5C642 58.0504 641.964 58.5924 641.895 59.124L817.459 92.5647C818.823 87.5712 823.091 83.7763 828.334 83.1057L823.497 15.9847C819.866 15.7637 817 13.1687 817 10C817 6.68629 820.134 4 824 4C827.866 4 831 6.68629 831 10C831 13.1697 828.132 15.7654 824.5 15.985L829.331 83.0169C829.451 83.0108 829.573 83.0063 829.694 83.0035L829.741 83.0025L829.826 83.0011C829.884 83.0004 829.942 83 830 83C837.116 83 842.897 88.7179 842.999 95.8099L989.846 75.0296C989.3 73.6252 989 72.0976 989 70.5C989 66.3151 991.057 62.6106 994.214 60.3418L984.346 44.626C983.613 44.8682 982.823 45 982 45C978.134 45 975 42.0899 975 38.5C975 34.9101 978.134 32 982 32C985.866 32 989 34.9101 989 38.5C989 40.9874 987.495 43.1484 985.285 44.2412L995.049 59.7911C996.932 58.6542 999.14 58 1001.5 58C1002.9 58 1004.25 58.2312 1005.51 58.6576L1017.12 13.8818C1013.64 13.2772 1011 10.426 1011 7C1011 3.13401 1014.36 0 1018.5 0C1022.64 0 1026 3.13401 1026 7Z" fill="#E5E5E5"/>
</svg>
